<svg width="24" height="24" viewBox="0 0 24 24" fill="none" xmlns="http://www.w3.org/2000/svg">
<path d="M8.97266 7.11035C9.4447 6.23399 10.787 6.39598 11.0107 7.40137L12.29 13.1602L13.126 11.3047L13.2021 11.1631C13.4021 10.8501 13.7503 10.6564 14.1289 10.6562H16C16.497 10.6562 16.9003 11.0587 16.9004 11.5557C16.9004 12.0527 16.4971 12.4561 16 12.4561H14.582L13.0674 15.8203C12.6331 16.7853 11.2208 16.6404 10.9912 15.6074L9.71777 9.88086L8.87695 11.7979C8.70148 12.1976 8.30567 12.4561 7.86914 12.4561H6C5.50294 12.4561 5.09961 12.0527 5.09961 11.5557C5.09973 11.0587 5.50302 10.6562 6 10.6562H7.41211L8.92969 7.19824L8.97266 7.11035Z" fill="white"/>
<path fill-rule="evenodd" clip-rule="evenodd" d="M11.0059 2.40332C15.9212 2.40332 19.9062 6.38838 19.9062 11.3037C19.9062 13.3608 19.2062 15.2534 18.0342 16.7607L20.6367 19.3633C20.9881 19.7148 20.9882 20.2853 20.6367 20.6367C20.2853 20.9882 19.7148 20.9881 19.3633 20.6367L16.79 18.0635C15.234 19.3962 13.2151 20.2041 11.0059 20.2041C6.09053 20.2041 2.10547 16.219 2.10547 11.3037C2.10547 6.38838 6.09053 2.40332 11.0059 2.40332ZM11.0059 4.2041C7.08464 4.2041 3.90625 7.38249 3.90625 11.3037C3.90625 15.2249 7.08464 18.4033 11.0059 18.4033C14.9271 18.4033 18.1055 15.2249 18.1055 11.3037C18.1055 7.38249 14.9271 4.2041 11.0059 4.2041Z" fill="white"/>
</svg>
