<svg width="24" height="24" viewBox="0 0 24 24" fill="none" xmlns="http://www.w3.org/2000/svg">
<path d="M6 7.5C5.44772 7.5 5 7.94772 5 8.5C5 9.05228 5.44772 9.5 6 9.5H7.5C8.05228 9.5 8.5 9.05228 8.5 8.5C8.5 7.94772 8.05228 7.5 7.5 7.5H6Z" fill="white"/>
<path d="M5 12C5 11.4477 5.44772 11 6 11H7.5C8.05228 11 8.5 11.4477 8.5 12C8.5 12.5523 8.05228 13 7.5 13H6C5.44772 13 5 12.5523 5 12Z" fill="white"/>
<path d="M6 14.5C5.44772 14.5 5 14.9477 5 15.5C5 16.0523 5.44772 16.5 6 16.5H7.5C8.05228 16.5 8.5 16.0523 8.5 15.5C8.5 14.9477 8.05228 14.5 7.5 14.5H6Z" fill="white"/>
<path fill-rule="evenodd" clip-rule="evenodd" d="M2 6C2 4.89543 2.89543 4 4 4H20C21.1046 4 22 4.89543 22 6L22 18C22 19.1046 21.1046 20 20 20H4C2.89543 20 2 19.1046 2 18V6ZM20 6L11.5 6L11.5 18H20L20 6ZM4 6L9.5 6L9.5 18H4V6Z" fill="white"/>
</svg>
