<svg width="24" height="24" viewBox="0 0 24 24" fill="none" xmlns="http://www.w3.org/2000/svg">
<path d="M12 16.2002C12.994 16.2002 13.7997 17.006 13.7998 18C13.7998 18.9941 12.9941 19.7998 12 19.7998C11.0059 19.7998 10.2002 18.9941 10.2002 18C10.2003 17.006 11.006 16.2002 12 16.2002Z" fill="white"/>
<path d="M12 10.2002C12.994 10.2002 13.7997 11.006 13.7998 12C13.7998 12.9941 12.9941 13.7998 12 13.7998C11.0059 13.7998 10.2002 12.9941 10.2002 12C10.2003 11.006 11.006 10.2002 12 10.2002Z" fill="white"/>
<path d="M12 4.2002C12.994 4.20022 13.7997 5.00599 13.7998 6C13.7998 6.9941 12.9941 7.79978 12 7.7998C11.0059 7.7998 10.2002 6.99411 10.2002 6C10.2003 5.00598 11.006 4.2002 12 4.2002Z" fill="white"/>
</svg>
