<svg width="24" height="24" viewBox="0 0 24 24" fill="none" xmlns="http://www.w3.org/2000/svg">
<path d="M8 14.5C8.55228 14.5 9 14.9477 9 15.5C9 16.0523 8.55228 16.5 8 16.5H6.5C5.94772 16.5 5.5 16.0523 5.5 15.5C5.5 14.9477 5.94772 14.5 6.5 14.5H8Z" fill="white"/>
<path d="M17.5 14.5C18.0523 14.5 18.5 14.9477 18.5 15.5C18.5 16.0523 18.0523 16.5 17.5 16.5H11.5C10.9477 16.5 10.5 16.0523 10.5 15.5C10.5 14.9477 10.9477 14.5 11.5 14.5H17.5Z" fill="white"/>
<path d="M8 11C8.55228 11 9 11.4477 9 12C9 12.5523 8.55228 13 8 13H6.5C5.94772 13 5.5 12.5523 5.5 12C5.5 11.4477 5.94772 11 6.5 11H8Z" fill="white"/>
<path d="M17.5 11C18.0523 11 18.5 11.4477 18.5 12C18.5 12.5523 18.0523 13 17.5 13H11.5C10.9477 13 10.5 12.5523 10.5 12C10.5 11.4477 10.9477 11 11.5 11H17.5Z" fill="white"/>
<path d="M8 7.5C8.55228 7.5 9 7.94772 9 8.5C9 9.05228 8.55228 9.5 8 9.5H6.5C5.94772 9.5 5.5 9.05228 5.5 8.5C5.5 7.94772 5.94772 7.5 6.5 7.5H8Z" fill="white"/>
<path d="M17.5 7.5C18.0523 7.5 18.5 7.94772 18.5 8.5C18.5 9.05228 18.0523 9.5 17.5 9.5H11.5C10.9477 9.5 10.5 9.05228 10.5 8.5C10.5 7.94772 10.9477 7.5 11.5 7.5H17.5Z" fill="white"/>
<path fill-rule="evenodd" clip-rule="evenodd" d="M19 4C20.6569 4 22 5.34315 22 7V17C22 18.6569 20.6569 20 19 20H5C3.34315 20 2 18.6569 2 17V7C2 5.34315 3.34315 4 5 4H19ZM5 6C4.44772 6 4 6.44772 4 7V17C4 17.5523 4.44772 18 5 18H19C19.5523 18 20 17.5523 20 17V7C20 6.44772 19.5523 6 19 6H5Z" fill="white"/>
</svg>
