<svg width="24" height="24" viewBox="0 0 24 24" fill="none" xmlns="http://www.w3.org/2000/svg">
<path d="M7.3916 10.0762C7.51803 10.0762 7.62055 10.1103 7.69922 10.1777C7.7806 10.2451 7.84263 10.3415 7.88477 10.4678C7.92687 10.5941 7.94821 10.746 7.94824 10.9229C7.94824 11.0969 7.92576 11.2476 7.88086 11.374C7.83872 11.4976 7.77362 11.5937 7.68652 11.6611C7.59955 11.7283 7.49014 11.7617 7.3584 11.7617H7.03418C6.86863 11.7616 6.73438 11.6275 6.73438 11.4619V10.376C6.73452 10.2105 6.86871 10.0763 7.03418 10.0762H7.3916Z" fill="white"/>
<path fill-rule="evenodd" clip-rule="evenodd" d="M12 2C17.5228 2 22 6.47715 22 12C22 17.5228 17.5228 22 12 22C6.47715 22 2 17.5228 2 12C2 6.47715 6.47715 2 12 2ZM16.4902 8.8457C16.1559 8.8457 15.8526 8.90765 15.5801 9.03125C15.3104 9.15486 15.0797 9.33434 14.8887 9.57031C14.7004 9.80631 14.5541 10.0935 14.4502 10.4307C14.3492 10.7677 14.2988 11.1483 14.2988 11.5723V12.4277C14.2988 12.8548 14.3469 13.2371 14.4424 13.5742C14.5379 13.9084 14.68 14.1938 14.8682 14.4297C15.0563 14.6655 15.2883 14.8452 15.5635 14.9688C15.8387 15.0923 16.155 15.1543 16.5117 15.1543C16.9526 15.1542 17.3374 15.071 17.666 14.9053C17.9945 14.7396 18.249 14.4957 18.4287 14.1729C18.5706 13.9195 18.6566 13.6248 18.6865 13.29C18.7011 13.1259 18.5652 12.9923 18.4004 12.9922H17.5732C17.4014 12.9922 17.2688 13.1373 17.2549 13.3086C17.2449 13.4309 17.2229 13.5335 17.1895 13.6162C17.1305 13.7593 17.0437 13.8588 16.9287 13.915C16.8136 13.9684 16.6745 13.9951 16.5117 13.9951C16.3572 13.9951 16.2302 13.9684 16.1318 13.915C16.0365 13.8617 15.9604 13.7749 15.9043 13.6543C15.8509 13.5307 15.8146 13.3684 15.7949 13.1689C15.7753 12.9696 15.7656 12.7225 15.7656 12.4277V11.5635C15.7656 11.2745 15.7785 11.0304 15.8037 10.8311C15.829 10.6317 15.8697 10.4714 15.9258 10.3506C15.9819 10.2272 16.0559 10.1384 16.1484 10.085C16.2411 10.0316 16.3554 10.0049 16.4902 10.0049C16.6868 10.0049 16.8439 10.037 16.9619 10.1016C17.0826 10.1633 17.1671 10.2714 17.2148 10.4258C17.2418 10.5114 17.2593 10.616 17.2666 10.7383C17.277 10.9097 17.4103 11.0537 17.582 11.0537H18.3994C18.568 11.0537 18.7054 10.9146 18.6865 10.7471C18.6491 10.4155 18.5628 10.1233 18.4287 9.87012C18.2545 9.53865 18.0045 9.28551 17.6787 9.11133C17.3556 8.93433 16.9594 8.8457 16.4902 8.8457ZM5.59277 8.93457C5.42729 8.93481 5.29297 9.06884 5.29297 9.23438V14.7695C5.29297 14.9351 5.42729 15.0701 5.59277 15.0703H6.43457C6.6002 15.0703 6.73438 14.9352 6.73438 14.7695V13.1475C6.73453 13.0129 6.84396 12.9043 6.97852 12.9043C7.07799 12.9044 7.168 12.9643 7.20508 13.0566L7.93555 14.8818C7.98112 14.9954 8.09148 15.0701 8.21387 15.0703H9.50488C9.53389 15.0703 9.55749 15.0466 9.55762 15.0176C9.55762 15.0106 9.55639 15.0035 9.55371 14.9971L8.62402 12.7666C8.56651 12.628 8.62197 12.47 8.74121 12.3789C8.79235 12.3399 8.84143 12.2987 8.8877 12.2549C9.04783 12.1004 9.1717 11.9049 9.25879 11.6689C9.34863 11.433 9.39355 11.1392 9.39355 10.7881C9.39351 10.3837 9.31229 10.0438 9.14941 9.76855C8.98928 9.49323 8.75862 9.285 8.45801 9.14453C8.15743 9.00411 7.8017 8.93457 7.3916 8.93457H5.59277ZM10.4863 8.93457C10.3206 8.93457 10.1855 9.06869 10.1855 9.23438V14.7695C10.1855 14.9352 10.3206 15.0703 10.4863 15.0703H13.5098C13.6755 15.0703 13.8096 14.9352 13.8096 14.7695V14.2324C13.8096 14.0667 13.6755 13.9326 13.5098 13.9326H11.9268C11.7612 13.9324 11.627 13.7974 11.627 13.6318V12.7695C11.6271 12.6041 11.7613 12.4699 11.9268 12.4697H13.1602C13.3258 12.4697 13.4599 12.3356 13.46 12.1699V11.6699C13.4599 11.5043 13.3258 11.3701 13.1602 11.3701H11.9268C11.7613 11.3699 11.6271 11.2357 11.627 11.0703V10.376C11.6271 10.2105 11.7613 10.0764 11.9268 10.0762H13.5225C13.6881 10.0762 13.8222 9.94199 13.8223 9.77637V9.23438C13.8223 9.06869 13.6881 8.93457 13.5225 8.93457H10.4863Z" fill="white"/>
</svg>
