<svg width="24" height="24" viewBox="0 0 24 24" fill="none" xmlns="http://www.w3.org/2000/svg">
<path fill-rule="evenodd" clip-rule="evenodd" d="M16 6C14.8954 6 14 6.89543 14 8C14 9.10457 14.8954 10 16 10C17.1046 10 18 9.10457 18 8C18 6.89543 17.1046 6 16 6ZM12.126 7C12.5701 5.27477 14.1362 4 16 4C17.8978 4 19.4869 5.32167 19.8971 7.09479H22C22.5523 7.09479 23 7.5425 23 8.09479C23 8.64707 22.5523 9.09479 22 9.09479H19.8483C19.3722 10.7717 17.8295 12 16 12C14.1362 12 12.5701 10.7252 12.126 9H2.00002C1.44773 9 1.00002 8.55229 1.00002 8C1.00002 7.44772 1.44773 7 2.00002 7H12.126ZM8.05281 14C6.94824 14 6.05281 14.8954 6.05281 16C6.05281 17.1046 6.94824 18 8.05281 18C9.15738 18 10.0528 17.1046 10.0528 16C10.0528 14.8954 9.15738 14 8.05281 14ZM4.16783 15.0437C4.59648 13.2964 6.17325 12 8.05281 12C9.91665 12 11.4828 13.2748 11.9268 15H22C22.5523 15 23 15.4477 23 16C23 16.5523 22.5523 17 22 17H11.9268C11.4828 18.7252 9.91665 20 8.05281 20C6.20476 20 4.64943 18.7467 4.19036 17.0437H2C1.44772 17.0437 1 16.596 1 16.0437C1 15.4915 1.44772 15.0437 2 15.0437H4.16783Z" fill="white"/>
</svg>
