<svg width="24" height="24" viewBox="0 0 24 24" fill="none" xmlns="http://www.w3.org/2000/svg">
<path d="M15.5557 12.0059C15.9945 11.9572 16.3905 12.274 16.4395 12.7129L16.7441 15.46L18.5947 16.3057C18.9966 16.4892 19.1738 16.9643 18.9902 17.3662C18.8066 17.7677 18.3323 17.944 17.9307 17.7607L15.668 16.7285C15.4121 16.6117 15.2363 16.3684 15.2051 16.0889L14.8486 12.8896C14.7999 12.4507 15.1167 12.0548 15.5557 12.0059Z" fill="white"/>
<path fill-rule="evenodd" clip-rule="evenodd" d="M16 1C16.5523 1 17 1.44772 17 2V3H18C19.6569 3 21 4.34315 21 6V11C21 11.0326 20.9982 11.0649 20.9951 11.0967C22.235 12.3596 23 14.0904 23 16C23 19.866 19.866 23 16 23C14.0904 23 12.3596 22.235 11.0967 20.9951C11.0649 20.9982 11.0326 21 11 21H6C4.34315 21 3 19.6569 3 18V6C3 4.34315 4.34315 3 6 3H7V2C7 1.44772 7.44772 1 8 1C8.55228 1 9 1.44772 9 2V3H15V2C15 1.44772 15.4477 1 16 1ZM16 11C13.2386 11 11 13.2386 11 16C11 18.7614 13.2386 21 16 21C18.7614 21 21 18.7614 21 16C21 13.2386 18.7614 11 16 11ZM5 18C5 18.5523 5.44772 19 6 19H9.6748C9.24273 18.0906 9 17.0738 9 16C9 14.0409 9.80553 12.2706 11.1025 11H5V18ZM6 5C5.44772 5 5 5.44772 5 6V9H19V6C19 5.44772 18.5523 5 18 5H17V6C17 6.55228 16.5523 7 16 7C15.4477 7 15 6.55228 15 6V5H9V6C9 6.55228 8.55228 7 8 7C7.44772 7 7 6.55228 7 6V5H6Z" fill="white"/>
</svg>
