<svg width="24" height="24" viewBox="0 0 24 24" fill="none" xmlns="http://www.w3.org/2000/svg">
<path fill-rule="evenodd" clip-rule="evenodd" d="M12 7.99985C14.2091 7.99985 16 9.79071 16 11.9998C15.9999 14.2089 14.2091 15.9998 12 15.9998C9.79091 15.9998 8.00008 14.2089 8 11.9998C8 9.79071 9.79086 7.99985 12 7.99985ZM12 9.99985C10.8954 9.99985 10 10.8953 10 11.9998C10.0001 13.1043 10.8955 13.9998 12 13.9998C13.1045 13.9998 13.9999 13.1043 14 11.9998C14 10.8953 13.1046 9.99985 12 9.99985Z" fill="white"/>
<path fill-rule="evenodd" clip-rule="evenodd" d="M12.9688 3.32114C13.5211 2.36469 14.7446 2.03744 15.7012 2.58969L18.2988 4.08969C19.2552 4.64197 19.5832 5.86467 19.0312 6.82114L18.4072 7.90122C18.3703 7.96545 18.3715 8.04499 18.4102 8.10825C18.4674 8.20193 18.523 8.29708 18.5762 8.3934C18.603 8.44192 18.6483 8.47743 18.7002 8.49204L18.7539 8.49985H20C21.1046 8.49985 22 9.39528 22 10.4998V13.4998L21.9893 13.704C21.8935 14.6452 21.1455 15.3937 20.2041 15.4891L20 15.4998H18.7529L18.6992 15.5067C18.6473 15.5213 18.6021 15.5567 18.5752 15.6053C18.5223 15.7011 18.4671 15.7963 18.4102 15.8895C18.3717 15.9528 18.3702 16.0324 18.4072 16.0965L19.0312 17.1776C19.5833 18.1341 19.2553 19.3578 18.2988 19.91L15.7012 21.41L15.5186 21.5028C14.6557 21.8904 13.6335 21.6165 13.0801 20.8495L12.9688 20.6776L12.3447 19.5965C12.3077 19.5324 12.238 19.4935 12.1641 19.4959C12.1096 19.4978 12.0547 19.4998 12 19.4998L11.835 19.4959C11.761 19.4935 11.6913 19.5324 11.6543 19.5965L11.0312 20.6776L10.9199 20.8495C10.3665 21.6165 9.34427 21.8904 8.48145 21.5028L8.29883 21.41L5.70117 19.91C4.80438 19.3922 4.4595 18.2839 4.875 17.3592L4.96875 17.1776L5.5918 16.0965C5.61958 16.0483 5.62536 15.9914 5.61035 15.9393L5.58887 15.8895C5.53213 15.7963 5.47753 15.7011 5.4248 15.6053C5.39799 15.5567 5.35274 15.5213 5.30078 15.5067L5.24707 15.4998H4L3.7959 15.4891C2.85455 15.3937 2.10646 14.6452 2.01074 13.704L2 13.4998V10.4998C2 9.46418 2.7872 8.61185 3.7959 8.50962L4 8.49985H5.24609L5.2998 8.49204C5.33435 8.48231 5.36561 8.46319 5.39062 8.43735L5.42383 8.3934L5.58887 8.10825C5.61771 8.06088 5.62544 8.00427 5.6123 7.952L5.5918 7.90122L4.96875 6.82114C4.45124 5.92447 4.70736 4.79393 5.5293 4.20102L5.70117 4.08969L8.29883 2.58969C9.25537 2.03743 10.4789 2.36465 11.0312 3.32114L11.6553 4.40219C11.6831 4.4503 11.7296 4.48416 11.7822 4.49692L11.8359 4.50278C11.8904 4.50118 11.9453 4.49985 12 4.49985L12.1631 4.50278C12.2184 4.50436 12.271 4.48261 12.3096 4.44516L12.3438 4.40219L12.9688 3.32114ZM14.7002 4.32212L14.0752 5.40317C13.6647 6.11291 12.9015 6.52537 12.1035 6.5018C12.0612 6.50055 12.028 6.49985 12 6.49985C11.9715 6.49985 11.938 6.50056 11.8955 6.5018C11.0973 6.52529 10.3342 6.1127 9.92383 5.40219L9.29883 4.32114L6.70117 5.82114L7.32422 6.90122C7.73533 7.61381 7.70642 8.47562 7.29688 9.14829C7.25479 9.21742 7.21431 9.28722 7.17578 9.35727C6.79752 10.0449 6.06771 10.4997 5.24609 10.4998H4V13.4998H5.24707C6.0175 13.5 6.70678 13.8993 7.10156 14.5155L7.17676 14.6415L7.29688 14.8495C7.70632 15.5221 7.73488 16.3833 7.32422 17.0956L6.70117 18.1766L9.29883 19.6776L9.92188 18.5975L10.0029 18.4676C10.3994 17.8784 11.0531 17.5219 11.7529 17.4979H11.9043L12 17.4998C12.0215 17.4998 12.0502 17.4994 12.0947 17.4979H12.2451C12.945 17.5215 13.5985 17.8779 13.9951 18.4666L14.0762 18.5965L14.7012 19.6776L17.2988 18.1776L16.6748 17.0965C16.2637 16.3844 16.292 15.5212 16.7041 14.8465L16.8252 14.6385L16.8994 14.5135C17.2938 13.8995 17.982 13.5 18.7529 13.4998H20V10.4998H18.7539C17.9319 10.4997 17.2032 10.045 16.8252 9.3602C16.7875 9.29185 16.7473 9.22197 16.7041 9.15122C16.292 8.47657 16.2642 7.61269 16.6758 6.90024L17.2988 5.82114L14.7012 4.32114L14.7002 4.32212Z" fill="white"/>
</svg>
