<svg width="24" height="24" viewBox="0 0 24 24" fill="none" xmlns="http://www.w3.org/2000/svg">
<path d="M19 15C19.5523 15 20 15.4477 20 16V17C20 18.6569 18.6569 20 17 20H7C5.34315 20 4 18.6569 4 17V16C4 15.4477 4.44772 15 5 15C5.55228 15 6 15.4477 6 16V17C6 17.5523 6.44772 18 7 18H17C17.5523 18 18 17.5523 18 17V16C18 15.4477 18.4477 15 19 15Z" fill="white"/>
<path d="M12 4C12.5521 4.00016 12.9998 4.44795 13 5V11.0859L14.293 9.79297C14.6835 9.40244 15.3165 9.40244 15.707 9.79297C16.0975 10.1835 16.0975 10.8165 15.707 11.207L12.707 14.207C12.3165 14.5975 11.6835 14.5975 11.293 14.207L8.29297 11.207C7.90244 10.8165 7.90244 10.1835 8.29297 9.79297C8.68349 9.40244 9.31651 9.40244 9.70703 9.79297L11 11.0859V5C11.0002 4.44791 11.4479 4.0001 12 4Z" fill="white"/>
</svg>
