<svg width="24" height="24" viewBox="0 0 24 24" fill="none" xmlns="http://www.w3.org/2000/svg">
<path d="M8.29297 20.707C8.68349 21.0975 9.31651 21.0975 9.70703 20.707L12.707 17.707C12.8945 17.5195 13 17.2652 13 17C13 16.7348 12.8945 16.4805 12.707 16.293L9.70703 13.293C9.31653 12.9025 8.6835 12.9025 8.29297 13.293C7.90244 13.6835 7.90244 14.3165 8.29297 14.707L9.71973 16.1338H7C5.89543 16.1338 5 15.2384 5 14.1338V8C5.00006 6.89548 5.89547 6 7 6H17C18.1045 6 18.9999 6.89549 19 8V14C19 15.1046 18.1046 16 17 16C16.4478 16 16.0001 16.4478 16 17C16 17.5523 16.4477 18 17 18C19.2091 18 21 16.2091 21 14V8C20.9999 5.79091 19.2091 4 17 4L7 4C4.7909 4 3.00006 5.79091 3 8V14.1338C3 16.3429 4.79086 18.1338 7 18.1338H9.45215L8.29297 19.293C7.90244 19.6835 7.90244 20.3165 8.29297 20.707Z" fill="white"/>
</svg>
