<svg width="24" height="24" viewBox="0 0 24 24" fill="none" xmlns="http://www.w3.org/2000/svg">
<path d="M8 4C8.55228 4 9 4.44772 9 5V19C9 19.5523 8.55228 20 8 20C7.44772 20 7 19.5523 7 19V5C7 4.44772 7.44772 4 8 4Z" fill="white"/>
<path d="M12 6C12.5523 6 13 6.44772 13 7V17C13 17.5523 12.5523 18 12 18C11.4477 18 11 17.5523 11 17V7C11 6.44772 11.4477 6 12 6Z" fill="white"/>
<path d="M4 8C4.55228 8 5 8.44772 5 9V15C5 15.5523 4.55228 16 4 16C3.44772 16 3 15.5523 3 15V9C3 8.44772 3.44772 8 4 8Z" fill="white"/>
<path d="M20 8C20.5523 8 21 8.44772 21 9V15C21 15.5523 20.5523 16 20 16C19.4477 16 19 15.5523 19 15V9C19 8.44772 19.4477 8 20 8Z" fill="white"/>
<path d="M16 9C16.5523 9 17 9.44772 17 10V14C17 14.5523 16.5523 15 16 15C15.4477 15 15 14.5523 15 14V10C15 9.44772 15.4477 9 16 9Z" fill="white"/>
</svg>
