<svg width="24" height="24" viewBox="0 0 24 24" fill="none" xmlns="http://www.w3.org/2000/svg">
<path d="M10.5 4C11.0523 4 11.5 4.44772 11.5 5C11.5 5.55228 11.0523 6 10.5 6H7C6.44772 6 6 6.44772 6 7V17C6 17.5523 6.44772 18 7 18H17C17.5523 18 18 17.5523 18 17V13.5C18 12.9477 18.4477 12.5 19 12.5C19.5523 12.5 20 12.9477 20 13.5V17C20 18.6569 18.6569 20 17 20H7C5.34315 20 4 18.6569 4 17V7C4 5.34315 5.34315 4 7 4H10.5Z" fill="white"/>
<path d="M19.999 3C20.2641 3 20.5195 3.1056 20.707 3.29297C20.8944 3.48048 20.999 3.73491 20.999 4L21 9C20.9999 9.55216 20.5522 9.99992 20 10C19.4478 9.99992 19.0001 9.55216 19 9V6.41406L12.207 13.207C11.8165 13.5976 11.1835 13.5976 10.793 13.207C10.4024 12.8165 10.4024 12.1835 10.793 11.793L17.5859 5H15C14.4477 5 14 4.55228 14 4C14 3.44772 14.4477 3 15 3H19.999Z" fill="white"/>
</svg>
