<svg width="24" height="24" viewBox="0 0 24 24" fill="none" xmlns="http://www.w3.org/2000/svg">
<path d="M10 7C11.1046 7 12 7.89543 12 9C12 10.1046 11.1046 11 10 11C8.89543 11 8 10.1046 8 9C8 7.89543 8.89543 7 10 7Z" fill="white"/>
<path fill-rule="evenodd" clip-rule="evenodd" d="M9.99902 2C13.865 2 16.999 5.13401 16.999 9L17 9.26465C16.9999 10.5811 16.6421 11.8731 15.9648 13.002L10.8574 21.5146C10.6767 21.8157 10.3511 22 10 22C9.64901 22 9.32435 21.8154 9.14355 21.5146L4.03516 13.002C3.35789 11.8731 3.00005 10.5811 3 9.26465L2.99902 9C2.99902 5.13431 6.13345 2.00049 9.99902 2ZM10 4C7.23859 4.00002 5.00098 6.23859 5.00098 9L5 9.26465C5.00005 10.2188 5.25911 11.1555 5.75 11.9736L9.99902 19.0557L14.25 11.9736C14.7409 11.1555 14.9999 10.2188 15 9.26465L14.999 9C14.999 6.23861 12.7614 4.00005 10 4Z" fill="white"/>
<path d="M16.168 2.44531C16.4743 1.98594 17.0952 1.86175 17.5547 2.16797C19.7071 3.60288 20.9999 6.01866 21 8.60547V8.9541C20.9999 10.474 20.5866 11.9652 19.8047 13.2686L14.8574 21.5156C14.5732 21.9884 13.9596 22.141 13.4863 21.8574C13.0128 21.5733 12.8584 20.9589 13.1426 20.4854L18.0898 12.2402C18.6853 11.2477 18.9999 10.1116 19 8.9541V8.60547C18.9999 6.68759 18.0419 4.89606 16.4463 3.83203C15.9868 3.52569 15.8617 2.90484 16.168 2.44531Z" fill="white"/>
</svg>
