<svg width="24" height="24" viewBox="0 0 24 24" fill="none" xmlns="http://www.w3.org/2000/svg">
<path d="M6.88184 14.6003C7.75681 14.6003 8.61975 14.8047 9.40234 15.196C9.84685 15.4183 10.027 15.9584 9.80469 16.403C9.58235 16.8474 9.04215 17.0275 8.59766 16.8053C8.065 16.539 7.47737 16.401 6.88184 16.401H6C5.50303 16.401 5.09975 15.9976 5.09961 15.5006C5.09961 15.0036 5.50294 14.6003 6 14.6003H6.88184Z" fill="white"/>
<path d="M6.88184 11.6003C7.75681 11.6003 8.61975 11.8047 9.40234 12.196C9.84685 12.4183 10.027 12.9584 9.80469 13.403C9.58235 13.8474 9.04215 14.0275 8.59766 13.8053C8.065 13.539 7.47737 13.401 6.88184 13.401H6C5.50303 13.401 5.09975 12.9976 5.09961 12.5006C5.09961 12.0036 5.50294 11.6003 6 11.6003H6.88184Z" fill="white"/>
<path d="M6 8.60026C7.09024 8.60026 8.17372 8.776 9.20801 9.12076L9.28418 9.14713C9.75558 9.30431 10.0105 9.81339 9.85352 10.2848C9.69628 10.7561 9.18718 11.0111 8.71582 10.8542L8.63867 10.8288C7.78792 10.5452 6.89677 10.401 6 10.401C5.50303 10.401 5.09975 9.99758 5.09961 9.50065C5.09961 9.00359 5.50294 8.60026 6 8.60026Z" fill="white"/>
<path fill-rule="evenodd" clip-rule="evenodd" d="M17.748 3.13541C18.0198 3.05622 18.3135 3.11015 18.54 3.27994C18.7665 3.44983 18.9003 3.71662 18.9004 3.99967V5.10026H21C21.4971 5.10026 21.9004 5.50359 21.9004 6.00065V19.0006C21.9002 19.4976 21.497 19.901 21 19.901H16.4922C15.4135 19.9011 14.3436 20.0928 13.332 20.4674L12.6602 20.7165C12.2344 20.8741 11.7656 20.8741 11.3398 20.7165L10.668 20.4674C9.65644 20.0928 8.58649 19.9011 7.50781 19.901H3C2.50303 19.901 2.09975 19.4976 2.09961 19.0006V6.00065C2.09961 5.50359 2.50294 5.10026 3 5.10026H6.70898C8.50354 5.1003 10.2688 5.54462 11.8496 6.3903L12.1611 6.08854C13.4374 4.84774 14.9982 3.93754 16.707 3.43912L17.748 3.13541ZM3.90039 18.1003H7.50781C8.75221 18.1003 9.98636 18.3155 11.1582 18.7321C11.1205 18.5824 11.0996 18.4238 11.0996 18.2585V8.02994C9.75492 7.28917 8.24457 6.90108 6.70898 6.90104H3.90039V18.1003ZM17.0996 5.20182C15.7168 5.62444 14.4536 6.36994 13.416 7.37858L12.9004 7.87858V18.2585C12.9004 18.2845 12.9063 18.2994 12.9121 18.3092C12.9194 18.3214 12.9322 18.335 12.9502 18.3454C12.9681 18.3557 12.9858 18.3597 13 18.36C13.0115 18.3602 13.028 18.3587 13.0508 18.3454L14.1182 17.7223L14.2109 17.6755L17.0996 16.4108V5.20182ZM18.9004 16.9997C18.9004 17.3572 18.6878 17.6805 18.3604 17.8239L17.7285 18.1003H20.0996V6.90104H18.9004V16.9997Z" fill="white"/>
</svg>
