<svg width="24" height="24" viewBox="0 0 24 24" fill="none" xmlns="http://www.w3.org/2000/svg">
<path d="M7.98084 2.84325C9.96354 1.97302 12.1755 1.76975 14.2836 2.26415C14.8209 2.39042 15.1545 2.92791 15.0287 3.46532C15.02 3.50221 15.0079 3.53785 14.9955 3.57274C14.9918 3.62568 14.9856 3.67956 14.973 3.7329L13.3695 10.5444C13.7571 10.9092 14.0004 11.4263 14.0004 12.0005C14.0001 13.1047 13.1046 14.0003 12.0004 14.0005C10.896 14.0005 10.0006 13.1048 10.0004 12.0005C10.0004 11.0969 10.5995 10.3334 11.4222 10.0854L11.9125 8.00243C11.314 8.01553 10.7226 8.16066 10.184 8.43505C9.43157 8.81846 8.8194 9.43074 8.43592 10.1831C8.05244 10.9357 7.91708 11.7912 8.0492 12.6255C8.18137 13.4597 8.57498 14.2304 9.17225 14.8276C9.76949 15.4248 10.5402 15.8185 11.3744 15.9507C12.2086 16.0827 13.0643 15.9474 13.8168 15.564C14.5691 15.1805 15.1814 14.5683 15.5648 13.8159C15.9482 13.0633 16.0837 12.2077 15.9515 11.3735C15.8653 10.8281 16.2372 10.3163 16.7826 10.23C17.3278 10.144 17.8398 10.5158 17.9262 11.061C18.1243 12.3123 17.9211 13.5943 17.3461 14.7231C16.7709 15.852 15.8528 16.7699 14.724 17.3452C13.5952 17.9203 12.3132 18.1233 11.0619 17.9253C9.8105 17.7271 8.65412 17.1376 7.75819 16.2417C6.86223 15.3457 6.27281 14.1895 6.07459 12.938C5.87643 11.6866 6.0795 10.4048 6.65467 9.27587C7.22992 8.14705 8.14788 7.22898 9.27674 6.6538C10.2381 6.16406 11.3103 5.94422 12.3803 6.01219L12.8431 4.04344C11.4642 3.89748 10.0646 4.1125 8.78455 4.6743C7.19846 5.37061 5.88105 6.56365 5.03065 8.07274C4.18041 9.58186 3.8427 11.3261 4.06873 13.0434C4.29486 14.761 5.07246 16.3594 6.28455 17.5972C7.4966 18.8347 9.07811 19.6457 10.7904 19.9077C12.5026 20.1696 14.2541 19.8687 15.7806 19.0503C17.3072 18.2316 18.5279 16.9389 19.2572 15.3677C19.9864 13.7965 20.1857 12.0307 19.8256 10.3364C19.7107 9.7962 20.0559 9.26472 20.5961 9.14989C21.136 9.03558 21.6668 9.38047 21.7816 9.9204C22.2318 12.0384 21.9822 14.2454 21.0707 16.2095C20.159 18.1735 18.6342 19.7897 16.726 20.813C14.8177 21.8362 12.6281 22.2117 10.4877 21.8843C8.34738 21.5567 6.37087 20.5434 4.85584 18.9966C3.34083 17.4495 2.36904 15.452 2.08631 13.3052C1.80366 11.1582 2.22541 8.97693 3.28846 7.09032C4.35149 5.20399 5.99822 3.7136 7.98084 2.84325Z" fill="white"/>
</svg>
