<svg width="240" height="240" viewBox="0 0 240 240" fill="none" xmlns="http://www.w3.org/2000/svg">
<path d="M104.189 41.2931C110.807 36.5683 119.997 41.2972 120 49.4278V190.57C119.998 198.702 110.807 203.431 104.189 198.705L52.6074 161.859C50.9122 160.649 48.8799 160.004 46.7969 160.004H30C24.4786 160.004 20.0023 155.525 20 150.004V90.004C20 84.4811 24.4772 80.004 30 80.004H46.7969C48.8802 80.0037 50.912 79.3494 52.6074 78.1388L104.189 41.2931Z" fill="white"/>
<path d="M154.336 74.3595C157.455 71.2312 162.516 71.2218 165.645 74.3399C190.884 99.5083 190.789 140.45 165.664 165.649C162.545 168.775 157.484 168.785 154.355 165.668C151.228 162.55 151.22 157.488 154.336 154.359C173.264 135.376 173.294 104.555 154.355 85.6681C151.228 82.5492 151.219 77.4884 154.336 74.3595Z" fill="white"/>
<path d="M129.336 94.3595C132.455 91.2313 137.516 91.2219 140.645 94.3399C154.838 108.494 154.775 131.495 140.664 145.649C137.545 148.775 132.484 148.785 129.355 145.668C126.228 142.55 126.22 137.489 129.336 134.359C137.25 126.422 137.249 113.542 129.355 105.668C126.228 102.549 126.22 97.4884 129.336 94.3595Z" fill="white"/>
</svg>
