<svg width="240" height="240" viewBox="0 0 240 240" fill="none" xmlns="http://www.w3.org/2000/svg">
<path d="M176.568 77.574C180.42 73.7227 180.419 67.2828 176.568 63.4315C172.717 59.5802 166.278 59.5805 162.426 63.4318L120 105.858L77.5735 63.4319C73.7223 59.5806 67.2828 59.5804 63.4316 63.4317C59.5803 67.283 59.5802 73.7228 63.4315 77.574L105.858 120L63.4314 162.427C59.5802 166.278 59.5802 172.718 63.4314 176.569C67.2827 180.42 73.7222 180.42 77.5735 176.569L120 134.143L162.426 176.569C166.278 180.42 172.717 180.42 176.569 176.569C180.42 172.718 180.42 166.278 176.568 162.427L134.142 120L176.568 77.574Z" fill="white"/>
</svg>
