<svg width="24" height="24" viewBox="0 0 24 24" fill="none" xmlns="http://www.w3.org/2000/svg">
<path fill-rule="evenodd" clip-rule="evenodd" d="M8.77734 8.38379C9.08346 8.44554 9.31518 8.71277 9.31543 9.04102V12.292C9.31534 12.8363 9.1449 13.3187 8.80859 13.7207L8.6543 13.8877C8.2136 14.3229 7.67469 14.5468 7.06152 14.5469C6.44411 14.5468 5.90449 14.3232 5.46777 13.8867C5.03107 13.4503 4.80674 12.9097 4.80664 12.292C4.80673 11.6744 5.03115 11.1349 5.46777 10.6982C5.90437 10.2619 6.4436 10.0372 7.06152 10.0371C7.38443 10.0372 7.68936 10.1003 7.9707 10.2246V9.04102C7.97098 8.66614 8.26858 8.37012 8.64258 8.37012L8.77734 8.38379ZM7.06055 11.3848C6.55899 11.3849 6.15258 11.7915 6.15234 12.293C6.1525 12.7946 6.55903 13.202 7.06055 13.2021C7.56218 13.2021 7.96957 12.7947 7.96973 12.293C7.96949 11.7913 7.56222 11.3848 7.06055 11.3848Z" fill="white"/>
<path fill-rule="evenodd" clip-rule="evenodd" d="M11.9678 10.0371C12.5045 10.0371 12.9847 10.2083 13.3916 10.543L13.5615 10.6963L13.5625 10.6973C13.9993 11.1344 14.2235 11.6743 14.2236 12.292V13.876C14.2236 14.0124 14.1847 14.1381 14.1113 14.2471L14.0264 14.3506C13.897 14.4799 13.7337 14.5467 13.5527 14.5469C13.4153 14.5469 13.2877 14.5091 13.1777 14.4355L13.0732 14.3496C13.0533 14.3296 13.0348 14.3081 13.0176 14.2861C12.923 14.3362 12.826 14.3808 12.7266 14.417C12.4887 14.5036 12.2329 14.5469 11.9678 14.5469C11.3506 14.5468 10.8106 14.3234 10.374 13.8867C9.93714 13.4498 9.71391 12.9094 9.71387 12.292C9.71396 11.6745 9.93751 11.1352 10.374 10.6982C10.8104 10.2619 11.3502 10.0372 11.9678 10.0371ZM11.9688 11.3828C11.4672 11.383 11.0607 11.7895 11.0605 12.291C11.0606 12.7927 11.4672 13.2 11.9688 13.2002C12.4704 13.2001 12.8778 12.7927 12.8779 12.291C12.8777 11.7895 12.4704 11.3829 11.9688 11.3828Z" fill="white"/>
<path fill-rule="evenodd" clip-rule="evenodd" d="M15.3701 8.37012C15.7404 8.37012 16.0446 8.66521 16.0449 9.04102V10.2236C16.325 10.0998 16.6304 10.0371 16.9551 10.0371C17.568 10.0373 18.1066 10.2611 18.5469 10.6963C18.7644 10.9111 18.9318 11.1566 19.043 11.4258L19.1162 11.6318C19.1782 11.8414 19.2089 12.0628 19.209 12.292C19.2089 12.8363 19.0377 13.3187 18.7012 13.7207L18.5469 13.8877C18.1066 14.3229 17.5679 14.5467 16.9551 14.5469C16.3377 14.5469 15.7972 14.3233 15.3604 13.8867C14.924 13.4503 14.6993 12.9098 14.6992 12.292V9.04102C14.6995 8.6669 14.996 8.3704 15.3701 8.37012ZM16.9551 11.3828C16.4537 11.383 16.0471 11.7894 16.0469 12.291C16.047 12.7928 16.4537 13.2 16.9551 13.2002C17.4566 13.2 17.8632 12.7927 17.8633 12.291C17.8631 11.7895 17.4566 11.383 16.9551 11.3828Z" fill="white"/>
<path fill-rule="evenodd" clip-rule="evenodd" d="M17 2.09961C19.7062 2.09961 21.9004 4.2938 21.9004 7V17C21.9004 19.7062 19.7062 21.9004 17 21.9004H7C4.2938 21.9004 2.09961 19.7062 2.09961 17V7C2.09961 4.2938 4.2938 2.09961 7 2.09961H17ZM7 3.90039C5.28792 3.90039 3.90039 5.28792 3.90039 7V17C3.90039 18.7121 5.28792 20.0996 7 20.0996H17C18.7121 20.0996 20.0996 18.7121 20.0996 17V7C20.0996 5.28792 18.7121 3.90039 17 3.90039H7Z" fill="white"/>
</svg>
