<svg width="24" height="24" viewBox="0 0 24 24" fill="none" xmlns="http://www.w3.org/2000/svg">
<path d="M16.8788 5.56543C17.3083 5.13588 18.0048 5.13593 18.4344 5.56543C19.7071 6.83806 20.5735 8.45943 20.9247 10.2246C21.2758 11.9898 21.0958 13.8196 20.4071 15.4824C19.7183 17.1452 18.552 18.5665 17.0555 19.5664C15.5591 20.5662 13.7996 21.0996 11.9999 21.0996C10.2001 21.0996 8.44061 20.5663 6.94419 19.5664C5.44777 18.5665 4.28137 17.1452 3.59263 15.4824C2.90389 13.8197 2.72396 11.9898 3.07505 10.2246C3.42618 8.45951 4.29275 6.83803 5.56529 5.56543C5.99484 5.13588 6.69137 5.13593 7.12095 5.56543C7.55041 5.99502 7.55049 6.69156 7.12095 7.12109C6.15606 8.08605 5.4985 9.3159 5.23228 10.6543C4.96619 11.9926 5.10269 13.38 5.62486 14.6406C6.14709 15.9014 7.03221 16.9791 8.16685 17.7373C9.30141 18.4953 10.6354 18.9003 11.9999 18.9004C13.3643 18.9004 14.6983 18.4952 15.8329 17.7373C16.9675 16.9792 17.8526 15.9014 18.3749 14.6406C18.897 13.38 19.0335 11.9926 18.7674 10.6543C18.5012 9.31583 17.8437 8.08608 16.8788 7.12109C16.4494 6.6916 16.4495 5.995 16.8788 5.56543Z" fill="white"/>
<path d="M11.9999 1.40039C12.6074 1.40039 13.0995 1.89249 13.0995 2.5V11C13.0995 11.6075 12.6074 12.0996 11.9999 12.0996C11.3924 12.0996 10.9002 11.6075 10.9002 11V2.5C10.9002 1.89252 11.3924 1.40045 11.9999 1.40039Z" fill="white"/>
</svg>
