<svg width="24" height="24" viewBox="0 0 24 24" fill="none" xmlns="http://www.w3.org/2000/svg">
<path d="M13.002 12.6357C13.2017 12.3358 13.6438 12.3395 13.8389 12.6426L15.6035 15.3838C15.7745 15.6499 15.583 16 15.2666 16H8.74805C8.42851 16 8.2377 15.6437 8.41504 15.3779L9.59766 13.6055C9.79218 13.3145 10.218 13.3085 10.4209 13.5938L11.4258 15.0068L13.002 12.6357Z" fill="white"/>
<path d="M9.7998 8C10.7939 8 11.5995 8.80578 11.5996 9.7998C11.5996 10.7939 10.7939 11.5996 9.7998 11.5996C8.80578 11.5995 8 10.7939 8 9.7998C8.00011 8.80585 8.80585 8.00011 9.7998 8Z" fill="white"/>
<path fill-rule="evenodd" clip-rule="evenodd" d="M16.5 4C18.1569 4 19.5 5.34315 19.5 7V17C19.5 18.6569 18.1569 20 16.5 20H7.5C5.84315 20 4.5 18.6569 4.5 17V7C4.5 5.34315 5.84315 4 7.5 4H16.5ZM7.5 6C6.94772 6 6.5 6.44772 6.5 7V17C6.5 17.5523 6.94772 18 7.5 18H16.5C17.0523 18 17.5 17.5523 17.5 17V7C17.5 6.44772 17.0523 6 16.5 6H7.5Z" fill="white"/>
<path d="M2 6C2.55228 6 3 6.44772 3 7V17C3 17.5523 2.55228 18 2 18C1.44772 18 1 17.5523 1 17V7C1 6.44772 1.44772 6 2 6Z" fill="white"/>
<path d="M22 6C22.5523 6 23 6.44772 23 7V17C23 17.5523 22.5523 18 22 18C21.4477 18 21 17.5523 21 17V7C21 6.44772 21.4477 6 22 6Z" fill="white"/>
</svg>
