<svg width="24" height="24" viewBox="0 0 24 24" fill="none" xmlns="http://www.w3.org/2000/svg">
<path fill-rule="evenodd" clip-rule="evenodd" d="M16.7578 2.03004C17.2935 1.89625 17.8358 2.22187 17.9697 2.75758C18.1032 3.29316 17.7778 3.8356 17.2422 3.9695L9.12109 5.99977H19C20.6569 5.99977 22 7.34292 22 8.99977V16.9998C21.9999 18.6565 20.6568 19.9998 19 19.9998H5C3.34322 19.9998 2.00012 18.6565 2 16.9998V8.99977C2 7.68806 2.84276 6.5754 4.01562 6.16774C3.92762 5.65684 4.24668 5.15788 4.75781 5.03004L16.7578 2.03004ZM12.1221 12.4998C12.6711 13.1846 13 14.0538 13 14.9998C12.9999 16.195 12.4747 17.2668 11.6436 17.9998H19C19.5522 17.9998 19.9999 17.552 20 16.9998V12.4998H12.1221ZM4 16.9998C4.00012 17.552 4.44779 17.9998 5 17.9998H6.35645C5.52527 17.2668 5.00007 16.195 5 14.9998C5 14.0538 5.3289 13.1846 5.87793 12.4998H4V16.9998ZM9 12.9998C7.89543 12.9998 7 13.8952 7 14.9998C7.00012 16.1042 7.89551 16.9998 9 16.9998C10.1045 16.9998 10.9999 16.1042 11 14.9998C11 13.8952 10.1046 12.9998 9 12.9998ZM5 7.99977C4.44772 7.99977 4 8.44749 4 8.99977V10.4998H15V9.99977C15 9.44749 15.4477 8.99977 16 8.99977C16.5523 8.99977 17 9.44749 17 9.99977V10.4998H20V8.99977C20 8.44749 19.5523 7.99977 19 7.99977H5Z" fill="white"/>
</svg>
