<svg width="24" height="24" viewBox="0 0 24 24" fill="none" xmlns="http://www.w3.org/2000/svg">
<path d="M7.50001 18.0005C8.32844 18.0005 9.00001 18.6721 9.00001 19.5005C8.99981 20.3287 8.32831 21.0005 7.50001 21.0005C6.67172 21.0005 6.00022 20.3287 6.00001 19.5005C6.00001 18.6721 6.67159 18.0005 7.50001 18.0005Z" fill="white"/>
<path d="M12 18.0005C12.8284 18.0005 13.5 18.6721 13.5 19.5005C13.4998 20.3287 12.8283 21.0005 12 21.0005C11.1717 21.0005 10.5002 20.3287 10.5 19.5005C10.5 18.6721 11.1716 18.0005 12 18.0005Z" fill="white"/>
<path d="M16.5 18.0005C17.3284 18.0005 18 18.6721 18 19.5005C17.9998 20.3287 17.3283 21.0005 16.5 21.0005C15.6717 21.0005 15.0002 20.3287 15 19.5005C15 18.6721 15.6716 18.0005 16.5 18.0005Z" fill="white"/>
<path d="M18.7656 2.98096C19.2162 2.66187 19.8409 2.76786 20.1602 3.21827C21.3581 4.90915 22.0007 6.93119 22 9.00342C21.9992 11.0757 21.3545 13.0966 20.1553 14.7866C19.8357 15.237 19.2112 15.3435 18.7608 15.0239C18.3105 14.7043 18.2049 14.0798 18.5244 13.6294C19.4838 12.2774 19.9994 10.6603 20 9.00245C20.0006 7.3447 19.4857 5.72719 18.5274 4.37452C18.2086 3.92396 18.3153 3.30014 18.7656 2.98096Z" fill="white"/>
<path d="M3.85255 3.20167C4.17276 2.75185 4.79716 2.64628 5.24709 2.96632C5.69691 3.28643 5.80227 3.91091 5.48244 4.36085C4.52121 5.71156 4.00291 7.32803 4.00001 8.98585C3.99718 10.6436 4.50932 12.2617 5.46584 13.6157C5.78443 14.0667 5.67744 14.6906 5.22658 15.0093C4.7755 15.328 4.15169 15.2201 3.83302 14.769C2.63738 13.0765 1.99645 11.0542 2.00001 8.98194C2.0037 6.90983 2.65115 4.88995 3.85255 3.20167Z" fill="white"/>
<path d="M15.334 5.1421C15.77 4.80329 16.3984 4.88193 16.7373 5.31788C17.5541 6.36887 17.9985 7.66162 18 8.99268C18.0015 10.3237 17.5604 11.6176 16.7461 12.6704C16.4082 13.1072 15.7796 13.188 15.3428 12.8501C14.906 12.5122 14.8262 11.8836 15.1641 11.4468C15.7069 10.7449 16.001 9.88194 16 8.99464C15.9989 8.10748 15.7026 7.24594 15.1582 6.54542C14.8195 6.10947 14.8983 5.48104 15.334 5.1421Z" fill="white"/>
<path d="M7.26759 5.31202C7.60713 4.87648 8.23632 4.79869 8.67189 5.13819C9.10702 5.47781 9.18507 6.1061 8.84572 6.54151C8.30019 7.24131 8.00241 8.10245 8.00001 8.98975C7.99771 9.87716 8.2911 10.7402 8.83302 11.4429C9.1703 11.8802 9.08871 12.5089 8.65138 12.8462C8.21407 13.1833 7.58628 13.1018 7.24904 12.6646C6.43613 11.6105 5.99655 10.316 6.00001 8.98487C6.00349 7.6539 6.4494 6.36179 7.26759 5.31202Z" fill="white"/>
<path d="M12 7.00049C13.1046 7.00049 14 7.89592 14 9.00049C13.9998 10.1049 13.1045 11.0005 12 11.0005C10.8956 11.0005 10.0002 10.1049 10 9.00049C10 7.89593 10.8955 7.0005 12 7.00049Z" fill="white"/>
</svg>
