<svg width="24" height="24" viewBox="0 0 24 24" fill="none" xmlns="http://www.w3.org/2000/svg">
<path d="M12.2031 3.89277C12.5094 2.82415 14.0693 2.86152 14.3242 3.94355L14.3456 4.05585L16.082 16.2101L17.5224 10.216C17.729 9.35668 18.793 9.09838 19.3769 9.70136L19.4872 9.83417L21.7324 12.9768C22.0212 13.3812 21.9277 13.9437 21.5234 14.2326C21.119 14.5215 20.5565 14.4279 20.2675 14.0236L18.914 12.1281L16.9765 20.1926C16.6932 21.3718 14.9902 21.2922 14.8183 20.092L13.1542 8.45038L11.5341 16.8889C11.3184 18.0119 9.74434 18.1004 9.40325 17.009L7.87786 12.1301L6.44524 15.5705C6.1441 16.2932 5.20591 16.4786 4.65228 15.925L2.36321 13.6369C2.01174 13.2854 2.01174 12.7149 2.36321 12.3635C2.71468 12.012 3.28518 12.012 3.63665 12.3635L5.18548 13.9133L6.95794 9.66132L7.0429 9.4953C7.48776 8.77632 8.57722 8.82623 8.95403 9.5832L9.02337 9.75702L10.2909 13.8156L12.1767 4.00409L12.2031 3.89277Z" fill="white"/>
</svg>
