<svg width="24" height="24" viewBox="0 0 24 24" fill="none" xmlns="http://www.w3.org/2000/svg">
<path d="M19.293 12.793C19.6835 12.4025 20.3165 12.4025 20.707 12.793C21.0975 13.1835 21.0975 13.8165 20.707 14.207L17.9141 17L20.707 19.793C21.0975 20.1835 21.0975 20.8165 20.707 21.207C20.3165 21.5976 19.6835 21.5976 19.293 21.207L16.5 18.4141L13.707 21.207C13.3165 21.5976 12.6835 21.5976 12.293 21.207C11.9025 20.8165 11.9025 20.1835 12.293 19.793L15.0859 17L12.293 14.207C11.9025 13.8165 11.9025 13.1835 12.293 12.793C12.6835 12.4025 13.3165 12.4025 13.707 12.793L16.5 15.5859L19.293 12.793Z" fill="white"/>
<path d="M8 19C8.55228 19 9 19.4477 9 20C9 20.5523 8.55228 21 8 21H4C3.44772 21 3 20.5523 3 20C3 19.4477 3.44772 19 4 19H8Z" fill="white"/>
<path d="M8 13.75C8.55228 13.75 9 14.1977 9 14.75C9 15.3023 8.55228 15.75 8 15.75H4C3.44772 15.75 3 15.3023 3 14.75C3 14.1977 3.44772 13.75 4 13.75H8Z" fill="white"/>
<path d="M20 8.25C20.5523 8.25 21 8.69772 21 9.25C21 9.80228 20.5523 10.25 20 10.25H4C3.44772 10.25 3 9.80228 3 9.25C3 8.69772 3.44772 8.25 4 8.25H20Z" fill="white"/>
<path d="M20 3C20.5523 3 21 3.44772 21 4C21 4.55228 20.5523 5 20 5H4C3.44772 5 3 4.55228 3 4C3 3.44772 3.44772 3 4 3H20Z" fill="white"/>
</svg>
