<svg width="24" height="24" viewBox="0 0 24 24" fill="none" xmlns="http://www.w3.org/2000/svg">
<path d="M17 19C17.5523 19 18 19.4477 18 20C18 20.5523 17.5523 21 17 21H5C4.44772 21 4 20.5523 4 20C4 19.4477 4.44772 19 5 19H17Z" fill="white"/>
<path d="M12 15C12.5523 15 13 15.4477 13 16C13 16.5523 12.5523 17 12 17H5C4.44772 17 4 16.5523 4 16C4 15.4477 4.44772 15 5 15H12Z" fill="white"/>
<path d="M19 11C19.5523 11 20 11.4477 20 12C20 12.5523 19.5523 13 19 13H5C4.44772 13 4 12.5523 4 12C4 11.4477 4.44772 11 5 11H19Z" fill="white"/>
<path d="M16 7C16.5523 7 17 7.44772 17 8C17 8.55228 16.5523 9 16 9H5C4.44772 9 4 8.55228 4 8C4 7.44772 4.44772 7 5 7H16Z" fill="white"/>
<path d="M19 3C19.5523 3 20 3.44772 20 4C20 4.55228 19.5523 5 19 5H5C4.44772 5 4 4.55228 4 4C4 3.44772 4.44772 3 5 3H19Z" fill="white"/>
</svg>
