<svg width="24" height="24" viewBox="0 0 24 24" fill="none" xmlns="http://www.w3.org/2000/svg">
<path d="M13 3.99986C13.5523 3.99986 14 4.44758 14 4.99986C13.9999 5.55207 13.5522 5.99986 13 5.99986H7C6.44772 5.99986 6 6.44758 6 6.99986V16.9999C6.0001 17.5521 6.44778 17.9999 7 17.9999H17C17.5522 17.9999 17.9999 17.5521 18 16.9999V10.9999C18 10.4476 18.4477 9.99987 19 9.99986C19.5523 9.99986 20 10.4476 20 10.9999V16.9999C19.9999 18.6566 18.6568 19.9999 17 19.9999H7C5.34321 19.9999 4.0001 18.6566 4 16.9999V6.99986C4 5.34301 5.34315 3.99986 7 3.99986H13Z" fill="white"/>
<path d="M18.793 3.79283C19.1835 3.40243 19.8165 3.40235 20.207 3.79283C20.5974 4.18333 20.5974 4.81641 20.207 5.2069L12.4141 12.9999H15C15.5523 12.9999 16 13.4476 16 13.9999C15.9999 14.5521 15.5522 14.9998 15 14.9999H10.001C9.44875 14.9999 9.00108 14.5521 9.00098 13.9999L9 8.99986C9.00008 8.4477 9.44783 7.99994 10 7.99986C10.5521 7.99997 10.9999 8.44772 11 8.99986V11.5858L18.793 3.79283Z" fill="white"/>
</svg>
