<svg width="300" height="300" viewBox="0 0 300 300" fill="none" xmlns="http://www.w3.org/2000/svg">
<path d="M47 141C50.3137 141 53 143.686 53 147C53 150.314 50.3137 153 47 153C43.6863 153 41 150.314 41 147C41 143.686 43.6863 141 47 141Z" fill="white"/>
<path d="M63 141C66.3137 141 69 143.686 69 147C69 150.314 66.3137 153 63 153C59.6863 153 57 150.314 57 147C57 143.686 59.6863 141 63 141Z" fill="white"/>
<path d="M79 141C82.3137 141 85 143.686 85 147C85 150.314 82.3137 153 79 153C75.6863 153 73 150.314 73 147C73 143.686 75.6863 141 79 141Z" fill="white"/>
<path d="M122 66C125.314 66 128 68.6863 128 72C128 75.3137 125.314 78 122 78C118.686 78 116 75.3137 116 72C116 68.6863 118.686 66 122 66Z" fill="white"/>
<path d="M138 66C141.314 66 144 68.6863 144 72C144 75.3137 141.314 78 138 78C134.686 78 132 75.3137 132 72C132 68.6863 134.686 66 138 66Z" fill="white"/>
<path d="M154 66C157.314 66 160 68.6863 160 72C160 75.3137 157.314 78 154 78C150.686 78 148 75.3137 148 72C148 68.6863 150.686 66 154 66Z" fill="white"/>
<path fill-rule="evenodd" clip-rule="evenodd" d="M251 50C264.255 50 275 60.7452 275 74V152C275 165.255 264.255 176 251 176H200V222C200 237.464 187.464 250 172 250H53C37.536 250 25 237.464 25 222V153C25 137.536 37.536 125 53 125H100V74C100 60.9522 110.412 50.3362 123.381 50.0078L124 50H251ZM53 133C41.9543 133 33 141.954 33 153V222C33 233.046 41.9543 242 53 242H172C183.046 242 192 233.046 192 222V176H124L123.381 175.992C110.618 175.669 100.331 165.382 100.008 152.619L100 152V133H53ZM124 58C115.163 58 108 65.1634 108 74V152C108 160.837 115.163 168 124 168H251C259.837 168 267 160.837 267 152V74C267 65.1634 259.837 58 251 58H124Z" fill="white"/>
</svg>
