<svg width="240" height="240" viewBox="0 0 240 240" fill="none" xmlns="http://www.w3.org/2000/svg">
<path d="M27.4996 35C27.4996 29.4772 31.9768 25 37.4996 25C43.0225 25 47.4996 29.4772 47.4996 35V66.6758C55.7136 55.5088 66.4467 46.3229 78.9232 39.9231C96.695 30.807 116.994 27.8618 136.624 31.5511C156.254 35.2405 174.099 45.3549 187.348 60.3013C200.597 75.2477 208.498 94.1768 209.807 114.107C211.115 134.038 205.756 153.838 194.574 170.388C183.392 186.938 167.023 199.298 148.044 205.522C129.065 211.745 108.555 211.479 89.7435 204.764C70.9326 198.049 54.8897 185.268 44.1416 168.433C41.1697 163.778 42.5341 157.595 47.1892 154.623C51.8442 151.651 58.0271 153.016 60.999 157.671C69.3586 170.765 81.8364 180.706 96.4672 185.928C111.098 191.151 127.05 191.358 141.812 186.517C156.573 181.677 169.305 172.063 178.002 159.191C186.699 146.319 190.867 130.919 189.85 115.417C188.832 99.9159 182.687 85.1932 172.382 73.5682C162.077 61.9432 148.197 54.0765 132.93 51.207C117.662 48.3375 101.874 50.6282 88.0513 57.7185C76.0313 63.8842 66.0918 73.3746 59.3795 85H97.4996C103.022 85 107.5 89.4772 107.5 95C107.5 100.523 103.022 105 97.4996 105H37.4996C31.9768 105 27.4996 100.523 27.4996 95V35Z" fill="white"/>
</svg>
