<svg width="240" height="240" viewBox="0 0 240 240" fill="none" xmlns="http://www.w3.org/2000/svg">
<path d="M104.189 41.2931C110.807 36.5683 119.997 41.2972 120 49.4278V190.57C119.998 198.702 110.807 203.431 104.189 198.705L52.6074 161.859C50.9122 160.649 48.8799 160.004 46.7969 160.004H30C24.4786 160.004 20.0023 155.525 20 150.004V90.004C20 84.4811 24.4772 80.004 30 80.004H46.7969C48.8802 80.0037 50.912 79.3494 52.6074 78.1388L104.189 41.2931Z" fill="white"/>
<path d="M192.93 83.2657C196.835 79.3605 203.165 79.3605 207.07 83.2657C210.973 87.1712 210.975 93.502 207.07 97.4063L184.141 120.336L207.07 143.266C210.974 147.171 210.975 153.502 207.07 157.406C203.166 161.308 196.834 161.309 192.93 157.406L170 134.477L147.07 157.406C143.166 161.309 136.834 161.308 132.93 157.406C129.025 153.502 129.026 147.171 132.93 143.266L155.859 120.336L132.93 97.4063C129.025 93.502 129.027 87.1712 132.93 83.2657C136.835 79.3605 143.165 79.3605 147.07 83.2657L170 106.195L192.93 83.2657Z" fill="white"/>
</svg>
